# xmcd
#
# Track frame offsets:
#	150
#	15456
#	30302
#	43508
#	57554
#	72865
#	85927
#	97333
#	118790
#	129663
#	150738
#	164048
#	179218
#	191377
#	203027
#	216833
#	228018
#	243469
#	260662
#	276221
#
# Disc length: 3833 seconds
#
# Revision: 0
# Processed by: cddbd v1.5.2PL0 Copyright (c) Steve Scherf et al.
# Submitted via: EasyCDDAExtractor 16.0.6.1
#
DISCID=260ef714
DTITLE=Συλλογικός δίσκος - Όλα τα ρεμπέτικα 06
DYEAR=2008
DGENRE=Ρεμπέτικη
TTITLE0=Γλυκερία - Ο μπουφετζής [Γ. Μπάτης-Γ. Παπαϊωάννου]
TTITLE1=Μπέλλου Σωτηρία - Παραπονιάρικό μου Απ. Χατζηχρήστος-Χαρ. Βασιλειάδης]
TTITLE2=Καζαντζίδης Στέλιος - Ο Αντώνης ο βαρκάρης [Σπ. Περιστέρης-Μίνως Μάτσα
TTITLE2=ς]
TTITLE3=Ιακωβίδης Αγάθωνας - Βρε μάγκα, το παράκανες [Μαν. Χιώτης]
TTITLE4=Μαριώ - Ο τρελλός τσιγγάνος [Ι. Γεωργακοπούλου-Χαρ. Βασιλειάδης]
TTITLE5=Ευσταθίου Δημήτρης - Ο πόνος του πρεζάκια [Ανέστης Δελιάς]
TTITLE6=Μουφλουζέλης Γιώργος - Ο τρελλάκιας [Γ. Μουφλουζέλης-Ν. Μάθεσης]
TTITLE7=Απόδημη κομπανία - Πάνε για το πράσο [Εμμανουήλ Χρυσαφάκης]
TTITLE8=Γκολές Μπάμπης - Οι σφουγγαράδες [Γιώργος Μπάτης]
TTITLE9=Καλημέρη Λιζέτα - Μανάκι μου [παραδοσιακό]
TTITLE10=Νικολαΐδης Απόστολος - Πέντε ποντικοί βαρβάτοι [παραδοσιακό]
TTITLE11=Κυριαζής Γιάννης - Κάθε βράδυ θα σε περιμένω [Μ. Βαμβακάρης]
TTITLE12=Γκόγκος Δημήτρης ή Μπαγιαντέρας - Ξεκινά μιά ψαροπούλα [Δημ. Γκόγκος]
TTITLE13=Χριστιάνα - Θέλω να πάψεις να γελάς [Σταύρος Τζουανάκος]
TTITLE14=Καπλάνης Κώστας - Όμορφη Πειραιώτισσα [Δημ. Γκόγκος]
TTITLE15=Λαμπράκη Χαρούλα-Παιδιά από την Πάτρα - Η Βαλεντίνα [Γ. Μητσάκης]
TTITLE16=Παπαϊωάννου Γιάννης - Άπονη σκληρή γυναίκα [Γ. Παπαϊωάννου-Ανάργ. Αντ
TTITLE16=ιβάχης]
TTITLE17=Βουτσελά Βιβή - Η Μαργαρίτα [Στέλιος Χρυσίνης]
TTITLE18=Σωφρονίου Ευάγγελος - Μανές μινόρε [παραδοσιακό]
TTITLE19=Εσκενάζυ Ρόζα - Καναρίνι [Δημ. Σέμσης]
EXTD=
EXTT0=
EXTT1=
EXTT2=
EXTT3=
EXTT4=
EXTT5=
EXTT6=
EXTT7=
EXTT8=
EXTT9=
EXTT10=
EXTT11=
EXTT12=
EXTT13=
EXTT14=
EXTT15=
EXTT16=
EXTT17=
EXTT18=
EXTT19=
PLAYORDER=
